<?xml version="1.0" encoding="utf-8"?>
<!-- Generator: Adobe Illustrator 23.0.1, SVG Export Plug-In . SVG Version: 6.00 Build 0)  -->
<svg version="1.1" id="Warstwa_1" xmlns="http://www.w3.org/2000/svg" xmlns:xlink="http://www.w3.org/1999/xlink" x="0px" y="0px"
	 viewBox="0 0 1000 1000" style="enable-background:new 0 0 1000 1000;" xml:space="preserve">
<style type="text/css">
	.st0{fill:url(#SVGID_1_);}
	.st1{fill:url(#SVGID_2_);}
	.st2{fill:url(#SVGID_3_);}
	.st3{fill:url(#SVGID_4_);}
	.st4{fill:url(#SVGID_5_);}
</style>
<linearGradient id="SVGID_1_" gradientUnits="userSpaceOnUse" x1="719.5709" y1="583.9334" x2="719.5709" y2="577.5759">
	<stop  offset="0" style="stop-color:#000000"/>
	<stop  offset="1" style="stop-color:#0030CC"/>
</linearGradient>
<polygon class="st0" points="718.52,583.76 720.62,577.58 718.57,583.93 718.52,583.78 "/>
<linearGradient id="SVGID_2_" gradientUnits="userSpaceOnUse" x1="500" y1="812.5737" x2="500" y2="10.0737">
	<stop  offset="0" style="stop-color:#000000"/>
	<stop  offset="1" style="stop-color:#0030CC"/>
</linearGradient>
<polygon class="st1" points="888.52,39.44 833.92,275.31 829.07,296.26 827.54,302.86 824.98,302.62 667.91,286.85 500.23,812.57 
	331.85,286.85 175.06,302.66 172.69,302.91 171.16,296.3 166.29,275.39 111.48,39.58 323.66,10.07 500.36,770.39 676.32,10.07 "/>
<polygon points="719.64,626.93 719.64,626.94 719.5,626.93 "/>
<polygon points="719.67,626.14 719.67,626.93 719.47,626.93 "/>
<linearGradient id="SVGID_3_" gradientUnits="userSpaceOnUse" x1="499.9981" y1="989.9263" x2="499.9981" y2="531.4161">
	<stop  offset="0" style="stop-color:#000000"/>
	<stop  offset="1" style="stop-color:#0030CC"/>
</linearGradient>
<polygon class="st2" points="623.01,989.24 622.98,989.3 622.86,989.58 622.72,989.93 378,989.93 242.05,650.61 241.94,650.35 
	206.96,542.71 207,542.71 220.58,541.71 223.39,541.49 224.66,541.39 357.52,531.42 500.18,862.91 500.22,863.01 500.23,862.97 
	501.92,859.03 502.58,857.51 642.36,531.42 642.39,531.42 775.51,541.36 776.77,541.45 779.42,541.65 793.04,542.66 758.26,650.14 
	680.76,831.03 680.61,831.51 680.58,831.58 "/>
<linearGradient id="SVGID_4_" gradientUnits="userSpaceOnUse" x1="500" y1="849.6649" x2="500" y2="294.3102">
	<stop  offset="0" style="stop-color:#002EC4"/>
	<stop  offset="1" style="stop-color:#00071C"/>
</linearGradient>
<polygon class="st3" points="867.3,313.64 797.4,529.66 795.94,529.54 779.39,528.31 776.74,528.11 775.49,528.01 642.37,518.08 
	502.59,844.17 501.95,845.69 500.25,849.66 500.19,849.57 357.54,518.08 224.65,528.05 223.37,528.15 220.59,528.37 204.06,529.6 
	202.87,529.68 132.7,313.72 162.45,310.78 165.82,310.45 167.37,310.27 327.91,294.31 500.28,824.8 500.28,824.82 500.32,824.98 
	502.37,818.62 503.17,816.18 672.03,294.31 832.86,310.23 834.38,310.37 837.55,310.7 "/>
<linearGradient id="SVGID_5_" gradientUnits="userSpaceOnUse" x1="500" y1="531.4167" x2="500" y2="989.9217">
	<stop  offset="0" style="stop-color:#0030CC"/>
	<stop  offset="1" style="stop-color:#000000"/>
</linearGradient>
<polygon class="st4" points="804.02,543.49 758.3,650.14 680.79,831.02 644.92,926.38 622.89,989.57 622.76,989.92 377.99,989.92 
	356.65,927.85 320.01,831.71 242.05,650.61 195.98,543.54 200,543.23 201.41,543.11 204.06,542.94 206.99,542.7 220.59,541.71 
	223.39,541.49 224.67,541.39 357.56,531.42 500.21,862.91 500.25,863.01 501.95,859.03 502.61,857.51 642.39,531.42 775.51,541.35 
	776.77,541.45 779.41,541.65 793.07,542.66 795.96,542.88 798.35,543.06 800,543.19 "/>
<polygon points="719.6,626.92 719.6,626.93 719.54,626.92 "/>
<polygon points="719.62,626.53 719.62,626.92 719.52,626.92 "/>
</svg>
